HIERARCHY
ROOT Hips
{
	OFFSET 0.000000 0.000000 0.000000
	CHANNELS 6 Xposition Yposition Zposition Xrotation Yrotation Zrotation
	JOINT LeftUpLeg_virtual
	{
		OFFSET 0.000000 0.000000 0.000000
		CHANNELS 3 Xrotation Yrotation Zrotation
		JOINT LeftUpLeg
		{
			OFFSET 11.394100 -6.187798 -0.413800
			CHANNELS 3 Xrotation Yrotation Zrotation
			JOINT LeftLeg
			{
				OFFSET 0.430247 -32.302673 3.732800
				CHANNELS 3 Xrotation Yrotation Zrotation
				JOINT LeftFoot
				{
					OFFSET -0.430247 -48.264931 -6.423300
					CHANNELS 3 Xrotation Yrotation Zrotation
					JOINT LeftToeBase
					{
						OFFSET 4.230900 -16.068199 23.438400
						CHANNELS 3 Xrotation Yrotation Zrotation
						JOINT LeftToe_End
						{
							OFFSET 4.510700 0.695400 19.974600
							CHANNELS 3 Xrotation Yrotation Zrotation
							End Site
							{
								OFFSET 0 0 0
							}
						}
					}
				}
			}
		}
	}
	JOINT RightUpLeg_virtual
	{
		OFFSET 0.000000 0.000000 0.000000
		CHANNELS 3 Xrotation Yrotation Zrotation
		JOINT RightUpLeg
		{
			OFFSET -11.333700 -6.187798 -0.413800
			CHANNELS 3 Xrotation Yrotation Zrotation
			JOINT RightLeg
			{
				OFFSET -0.430392 -32.302628 3.733000
				CHANNELS 3 Xrotation Yrotation Zrotation
				JOINT RightFoot
				{
					OFFSET 0.430392 -48.264973 -6.423500
					CHANNELS 3 Xrotation Yrotation Zrotation
					JOINT RightToeBase
					{
						OFFSET -4.230900 -16.068199 23.438400
						CHANNELS 3 Xrotation Yrotation Zrotation
						JOINT RightToe_End
						{
							OFFSET -4.510700 0.695400 19.974600
							CHANNELS 3 Xrotation Yrotation Zrotation
							End Site
							{
								OFFSET 0 0 0
							}
						}
					}
				}
			}
		}
	}
	JOINT Spine_virtual
	{
		OFFSET 0.000000 0.000000 0.000000
		CHANNELS 3 Xrotation Yrotation Zrotation
		JOINT Spine
		{
			OFFSET -0.002400 12.777504 0.315300
			CHANNELS 3 Xrotation Yrotation Zrotation
			JOINT Spine1
			{
				OFFSET -0.002067 5.816869 0.032633
				CHANNELS 3 Xrotation Yrotation Zrotation
				JOINT Spine1_split
				{
					OFFSET -0.002067 5.816869 0.032633
					CHANNELS 3 Xrotation Yrotation Zrotation
					JOINT Spine2
					{
						OFFSET -0.002067 5.816869 0.032633
						CHANNELS 3 Xrotation Yrotation Zrotation
						JOINT Neck_virtual
						{
							OFFSET 0.000000 0.000000 0.000000
							CHANNELS 3 Xrotation Yrotation Zrotation
							JOINT Neck
							{
								OFFSET -0.003700 21.199493 -0.826900
								CHANNELS 3 Xrotation Yrotation Zrotation
								JOINT Head
								{
									OFFSET 0.000000 20.442200 4.834800
									CHANNELS 3 Xrotation Yrotation Zrotation
									JOINT HeadTop_End
									{
										OFFSET 0.000000 34.668396 4.968400
										CHANNELS 3 Xrotation Yrotation Zrotation
										End Site
										{
											OFFSET 0 0 0
										}
									}
								}
							}
						}
						JOINT LeftShoulder_virtual
						{
							OFFSET 0.000000 0.000000 0.000000
							CHANNELS 3 Xrotation Yrotation Zrotation
							JOINT LeftShoulder
							{
								OFFSET 3.288150 8.794197 -1.372250
								CHANNELS 3 Xrotation Yrotation Zrotation
								JOINT LeftShoulder_split
								{
									OFFSET 3.288150 8.794197 -1.372250
									CHANNELS 3 Xrotation Yrotation Zrotation
									JOINT LeftArm
									{
										OFFSET 11.953299 -2.279007 -0.146200
										CHANNELS 3 Xrotation Yrotation Zrotation
										JOINT LeftForeArm
										{
											OFFSET 18.448900 0.000000 0.000000
											CHANNELS 3 Xrotation Yrotation Zrotation
											JOINT LeftHand
											{
												OFFSET 29.527798 0.000000 0.000000
												CHANNELS 3 Xrotation Yrotation Zrotation
												End Site
												{
													OFFSET 0 0 0
												}
											}
										}
									}
								}
							}
						}
						JOINT RightShoulder_virtual
						{
							OFFSET 0.000000 0.000000 0.000000
							CHANNELS 3 Xrotation Yrotation Zrotation
							JOINT RightShoulder
							{
								OFFSET -3.249400 8.794197 -1.372250
								CHANNELS 3 Xrotation Yrotation Zrotation
								JOINT RightShoulder_split
								{
									OFFSET -3.249400 8.794197 -1.372250
									CHANNELS 3 Xrotation Yrotation Zrotation
									JOINT RightArm
									{
										OFFSET -11.953299 -2.279007 -0.146200
										CHANNELS 3 Xrotation Yrotation Zrotation
										JOINT RightForeArm
										{
											OFFSET -18.448900 0.000000 0.000000
											CHANNELS 3 Xrotation Yrotation Zrotation
											JOINT RightHand
											{
												OFFSET -29.527802 0.000000 0.000000
												CHANNELS 3 Xrotation Yrotation Zrotation
												End Site
												{
													OFFSET 0 0 0
												}
											}
										}
									}
								}
							}
						}
					}
				}
			}
		}
	}
}
MOTION
Frames: 4
Frame Time: 0.03333333
1.665599 85.262657 -0.934830 0.000000 0.000000 0.000000 20.677853 -3.885520 -29.830544 -82.792561 -8.737800 19.543719 61.230365 -7.847309 9.644553 -3.429412 -3.455747 -2.948324 -4.103787 0.548469 0.441682 0.000000 0.000000 0.000000 21.207551 -1.828294 -31.572734 -34.735306 -28.800763 5.882791 33.960790 -7.834483 -0.827167 -6.479091 -9.043489 11.499951 -2.315554 -0.101193 -1.130047 0.000000 0.000000 0.000000 19.136979 -2.649196 -30.435651 7.460668 3.727492 -15.452560 6.075153 3.114446 -11.243711 1.905334 0.292583 0.085843 0.000000 0.000000 0.000000 6.847244 3.047734 -10.808697 -0.777828 2.674997 -5.465332 -7.259452 17.310720 -4.523373 0.000000 0.000000 0.000000 6.476769 3.617346 -10.907212 0.172421 -3.299475 16.558796 -1.548637 -0.887044 -2.646373 -55.414223 -45.499848 -95.757572 4.196192 -59.060475 2.648840 0.000000 0.000000 0.000000 7.322089 3.194014 -11.389842 0.313856 -4.199990 -0.773336 7.169834 3.604492 -1.792865 -1.722810 60.922255 18.380196 -2.247801 76.699582 1.699618 0.000000 0.000000 0.000000 
1.899136 85.355766 -1.016308 0.000000 0.000000 0.000000 20.670312 -4.411810 -29.122089 -82.655336 -7.750292 19.790960 61.282684 -7.827115 9.678880 -3.865152 -3.287275 -2.745783 -3.886087 0.484877 0.361812 0.000000 0.000000 0.000000 21.165506 -2.302051 -30.850185 -35.361249 -28.611355 5.345609 34.108664 -7.899273 -0.797963 -5.923649 -8.709007 11.355780 -2.168982 -0.030317 -1.064949 0.000000 0.000000 0.000000 19.174624 -2.963445 -29.866249 7.616886 3.612176 -15.122886 6.162469 3.020693 -11.064093 2.012489 0.571376 -0.242610 0.000000 0.000000 0.000000 6.749928 2.994286 -10.638213 0.551188 2.274218 -4.393306 -4.752076 17.211636 -3.234095 0.000000 0.000000 0.000000 6.596906 3.460770 -10.758561 -0.020660 -3.044411 17.075570 -1.083297 -0.825241 -2.361304 -54.520896 -45.439271 -94.951856 3.412793 -58.709574 2.220332 0.000000 0.000000 0.000000 7.432683 3.152914 -11.204189 0.373916 -3.605681 -1.509927 6.993629 3.576079 -1.577818 -2.369904 61.793596 20.035518 -1.991813 74.893215 1.431478 0.000000 0.000000 0.000000 
2.100111 85.474121 -1.096935 0.000000 0.000000 0.000000 20.634792 -4.924092 -28.398803 -82.480285 -6.882196 20.117877 61.293455 -7.828846 9.673382 -4.107130 -3.151785 -2.749077 -3.797062 0.411893 0.273670 0.000000 0.000000 0.000000 21.082210 -2.671674 -30.124502 -36.050657 -28.308238 4.847787 34.393257 -8.075036 -0.750599 -5.508801 -8.405823 11.128583 -1.999369 0.049855 -1.024980 0.000000 0.000000 0.000000 19.073547 -3.422629 -29.215564 7.828094 3.484010 -14.919133 6.187949 2.902210 -10.797012 2.079319 0.914354 -0.317990 0.000000 0.000000 0.000000 6.585244 2.905952 -10.377321 2.124175 2.004443 -3.261832 -2.324451 17.021713 -1.823178 0.000000 0.000000 0.000000 6.642031 3.275654 -10.552763 -0.214319 -2.820679 17.338239 -0.462314 -0.603852 -2.022504 -52.988242 -45.423493 -93.642659 3.126457 -58.300022 2.165443 0.000000 0.000000 0.000000 7.440410 3.101490 -10.925023 0.406189 -2.985721 -2.256144 6.693421 3.649706 -1.314664 -3.831253 62.172808 22.623282 -1.814606 72.839419 1.119068 0.000000 0.000000 0.000000 
2.245806 85.621353 -1.184235 0.000000 0.000000 0.000000 20.594269 -5.442185 -27.635102 -82.348586 -6.124364 20.552847 61.307614 -7.818374 9.591390 -3.952901 -3.044148 -2.899569 -3.792195 0.328782 0.183267 0.000000 0.000000 0.000000 21.005960 -2.968135 -29.366081 -36.804543 -27.883981 4.426244 34.755728 -8.354892 -0.715243 -5.210490 -8.156087 10.815586 -1.803234 0.128554 -0.986118 0.000000 0.000000 0.000000 18.906561 -4.011882 -28.473291 8.072929 3.372638 -14.825460 6.198273 2.765625 -10.470777 2.070865 1.140180 -0.167643 0.000000 0.000000 0.000000 6.475711 2.802644 -10.065858 3.791131 1.922236 -2.158347 -0.302770 16.856521 -0.389206 0.000000 0.000000 0.000000 6.674420 3.095180 -10.331252 -0.383180 -2.676672 17.354240 0.149704 -0.344467 -1.678957 -50.976041 -45.727136 -91.705549 3.244891 -57.906378 2.396843 0.000000 0.000000 0.000000 7.397925 3.042521 -10.599735 0.423607 -2.375927 -2.890523 6.289391 3.703746 -1.008553 -5.541896 62.218010 25.446916 -1.659569 71.003491 0.767656 0.000000 0.000000 0.000000 
